<svg width="17" height="18" viewBox="0 0 17 18" fill="none" xmlns="http://www.w3.org/2000/svg">
<path d="M8.32996 0.660156C7.18412 0.660156 6.10339 0.88151 5.08777 1.32422C4.07214 1.75391 3.18673 2.34635 2.43152 3.10156C1.67631 3.85677 1.08386 4.74219 0.654175 5.75781C0.211466 6.77344 -0.0098877 7.85417 -0.0098877 9C-0.0098877 10.1458 0.211466 11.2266 0.654175 12.2422C1.08386 13.2578 1.67631 14.1432 2.43152 14.8984C3.18673 15.6536 4.07214 16.2461 5.08777 16.6758C6.10339 17.1185 7.18412 17.3398 8.32996 17.3398C9.47579 17.3398 10.5565 17.1185 11.5721 16.6758C12.5878 16.2461 13.4732 15.6536 14.2284 14.8984C14.9836 14.1432 15.576 13.2578 16.0057 12.2422C16.4484 11.2266 16.6698 10.1458 16.6698 9C16.6698 7.85417 16.4484 6.77344 16.0057 5.75781C15.576 4.74219 14.9836 3.85677 14.2284 3.10156C13.4732 2.34635 12.5878 1.75391 11.5721 1.32422C10.5565 0.88151 9.47579 0.660156 8.32996 0.660156ZM8.32996 15.6602C7.40548 15.6602 6.53959 15.4844 5.7323 15.1328C4.92501 14.7943 4.21863 14.3223 3.61316 13.7168C3.00769 13.1113 2.53569 12.4049 2.19714 11.5977C1.84558 10.7904 1.6698 9.92448 1.6698 9C1.6698 8.07552 1.84558 7.20964 2.19714 6.40234C2.53569 5.59505 3.00769 4.88867 3.61316 4.2832C4.21863 3.67773 4.92501 3.20573 5.7323 2.86719C6.53959 2.51562 7.40548 2.33984 8.32996 2.33984C9.25444 2.33984 10.1203 2.51562 10.9276 2.86719C11.7349 3.20573 12.4413 3.67773 13.0468 4.2832C13.6522 4.88867 14.1242 5.59505 14.4628 6.40234C14.8143 7.20964 14.9901 8.07552 14.9901 9C14.9901 9.92448 14.8143 10.7904 14.4628 11.5977C14.1242 12.4049 13.6522 13.1113 13.0468 13.7168C12.4413 14.3223 11.7349 14.7943 10.9276 15.1328C10.1203 15.4844 9.25444 15.6602 8.32996 15.6602ZM6.6698 10.3281L4.75574 8.41406L3.56433 9.58594L6.6698 12.6719L12.2557 7.08594L11.0839 5.91406L6.6698 10.3281Z" fill="#6366F1"/>
</svg>
