<svg width="24" height="25" viewBox="0 0 24 25" fill="none" xmlns="http://www.w3.org/2000/svg">
<path d="M12.27 0.714233C10.6659 0.714233 9.15283 1.02413 7.73096 1.64392C6.30908 2.24548 5.0695 3.07491 4.01221 4.1322C2.95492 5.18949 2.12549 6.42908 1.52393 7.85095C0.904134 9.27283 0.594238 10.7858 0.594238 12.39C0.594238 13.9942 0.904134 15.5072 1.52393 16.9291C2.12549 18.3327 2.95492 19.5632 4.01221 20.6205C5.0695 21.6778 6.30908 22.5163 7.73096 23.1361C9.15283 23.7377 10.6659 24.0385 12.27 24.0385C13.8742 24.0385 15.3872 23.7377 16.8091 23.1361C18.231 22.5163 19.466 21.6778 20.5142 20.6205C21.5623 19.5632 22.3963 18.3327 23.0161 16.9291C23.6359 15.5072 23.9458 13.9942 23.9458 12.39C23.9458 10.7858 23.6359 9.27283 23.0161 7.85095C22.3963 6.42908 21.5623 5.18949 20.5142 4.1322C19.466 3.07491 18.231 2.24548 16.8091 1.64392C15.3872 1.02413 13.8742 0.714233 12.27 0.714233ZM12.27 21.7142C10.9757 21.7142 9.76351 21.4681 8.6333 20.976C7.50309 20.4838 6.51416 19.8184 5.6665 18.9799C4.81885 18.1413 4.14893 17.1478 3.65674 15.9994C3.18278 14.8692 2.9458 13.6661 2.9458 12.39C2.9458 11.0957 3.18278 9.8835 3.65674 8.7533C4.14893 7.62309 4.81885 6.63416 5.6665 5.7865C6.51416 4.93884 7.50309 4.26892 8.6333 3.77673C9.76351 3.28455 10.9757 3.03845 12.27 3.03845C13.5643 3.03845 14.7765 3.28455 15.9067 3.77673C17.0369 4.26892 18.0259 4.93884 18.8735 5.7865C19.7212 6.63416 20.382 7.62309 20.856 8.7533C21.3481 9.8835 21.5942 11.0957 21.5942 12.39C21.5942 13.6661 21.3481 14.8692 20.856 15.9994C20.382 17.1478 19.7212 18.1413 18.8735 18.9799C18.0259 19.8184 17.0369 20.4838 15.9067 20.976C14.7765 21.4681 13.5643 21.7142 12.27 21.7142ZM12.27 11.2142H7.59424V13.5385H12.27V17.0658L16.9458 12.39L12.27 7.71423V11.2142Z" fill="#6366F1"/>
</svg>
