<svg width="15" height="15" viewBox="0 0 15 15" fill="none" xmlns="http://www.w3.org/2000/svg">
<path d="M13.2369 5.60938C13.2004 5.5 13.1366 5.40885 13.0455 5.33594C12.9543 5.26302 12.8541 5.22201 12.7447 5.21289H12.731L9.40875 4.93945L7.97321 1.75391C7.92763 1.65365 7.85699 1.57161 7.76129 1.50781C7.66559 1.44401 7.55849 1.41211 7.44 1.41211C7.32151 1.41211 7.21442 1.44401 7.11871 1.50781C7.02301 1.57161 6.95237 1.65365 6.9068 1.75391L5.47125 4.93945L2.14899 5.21289C1.99404 5.22201 1.86416 5.28353 1.75934 5.39746C1.65452 5.51139 1.60211 5.64128 1.60211 5.78711C1.60211 5.86914 1.61806 5.94661 1.64996 6.01953C1.68186 6.09245 1.72516 6.15625 1.77985 6.21094L4.24078 8.60352L3.36578 12.3633C3.36578 12.3906 3.3635 12.4134 3.35895 12.4316C3.35439 12.4499 3.35211 12.4727 3.35211 12.5C3.35211 12.6641 3.40908 12.8031 3.52301 12.917C3.63694 13.0309 3.77594 13.0879 3.94 13.0879C4.0038 13.0879 4.06305 13.0788 4.11774 13.0605C4.17242 13.0423 4.22255 13.015 4.26813 12.9785L7.44 10.873L10.6119 12.9785C10.6574 13.015 10.7076 13.0423 10.7623 13.0605C10.817 13.0788 10.8762 13.0879 10.94 13.0879C11.1041 13.0879 11.2431 13.0309 11.357 12.917C11.4709 12.8031 11.5279 12.6641 11.5279 12.5C11.5279 12.4727 11.5256 12.4453 11.5211 12.418C11.5165 12.3906 11.5097 12.3633 11.5005 12.3359L10.4341 8.60352L13.0865 6.22461C13.1685 6.15169 13.2255 6.05827 13.2574 5.94434C13.2893 5.8304 13.2824 5.71875 13.2369 5.60938Z" fill="#FFBA08"/>
</svg>
